<svg width="15" height="15" viewBox="0 0 15 15" fill="none" xmlns="http://www.w3.org/2000/svg">
<g clip-path="url(#clip0_862_172)">
<path d="M13.4908 2.4682C13.4347 2.46242 13.3782 2.46242 13.3221 2.4682H1.80588C1.73207 2.46934 1.65875 2.4804 1.58789 2.5011L7.53111 8.41964L13.4908 2.4682Z" fill="white"/>
<path d="M14.0994 3.03906L8.11094 9.00284C7.95682 9.15605 7.74833 9.24205 7.53101 9.24205C7.3137 9.24205 7.10521 9.15605 6.95109 9.00284L1.0161 3.08431C0.99785 3.15136 0.988176 3.22046 0.987305 3.28995V11.5159C0.987305 11.734 1.07397 11.9433 1.22824 12.0975C1.3825 12.2518 1.59173 12.3384 1.8099 12.3384H13.3262C13.5443 12.3384 13.7536 12.2518 13.9078 12.0975C14.0621 11.9433 14.1488 11.734 14.1488 11.5159V3.28995C14.1455 3.20426 14.1288 3.11961 14.0994 3.03906ZM2.37337 11.5159H1.80167V10.9277L4.79179 7.96227L5.37171 8.54219L2.37337 11.5159ZM13.3179 11.5159H12.7421L9.74378 8.54219L10.3237 7.96227L13.3138 10.9277L13.3179 11.5159Z" fill="white"/>
</g>
<defs>
<clipPath id="clip0_862_172">
<rect width="14.8066" height="14.8066" fill="white" transform="translate(0.193359)"/>
</clipPath>
</defs>
</svg>
