<svg width="16" height="15" viewBox="0 0 16 15" fill="none" xmlns="http://www.w3.org/2000/svg">
<path d="M8.08496 0C3.99617 0 0.681641 3.31453 0.681641 7.40332C0.681641 11.4921 3.99617 14.8066 8.08496 14.8066C12.1737 14.8066 15.4883 11.4921 15.4883 7.40332C15.4883 3.31453 12.1737 0 8.08496 0ZM6.27269 10.4718H4.77351V5.64734H6.27269V10.4718ZM5.51385 5.05508C5.04034 5.05508 4.73418 4.71961 4.73418 4.30472C4.73418 3.88134 5.0496 3.5559 5.53312 3.5559C6.01665 3.5559 6.31279 3.88134 6.32204 4.30472C6.32204 4.71961 6.01665 5.05508 5.51385 5.05508ZM11.7481 10.4718H10.2489V7.79816C10.2489 7.17582 10.0314 6.75321 9.48927 6.75321C9.07515 6.75321 8.82914 7.03932 8.72041 7.31463C8.68031 7.41257 8.67028 7.55138 8.67028 7.68942V10.4711H7.17034V7.18584C7.17034 6.58355 7.15106 6.07997 7.13101 5.64657H8.43353L8.50216 6.31672H8.53224C8.72966 6.00208 9.21319 5.53783 10.0222 5.53783C11.0085 5.53783 11.7481 6.19873 11.7481 7.61924V10.4718Z" fill="white"/>
</svg>
