<svg width="15" height="15" viewBox="0 0 15 15" fill="none" xmlns="http://www.w3.org/2000/svg">
<g clip-path="url(#clip0_862_167)">
<path d="M7.40332 14.8066C6.40078 14.8066 5.44163 14.6114 4.52585 14.221C3.61008 13.8306 2.82203 13.3052 2.16171 12.6449C1.50139 11.9846 0.976023 11.1966 0.585614 10.2808C0.195205 9.365 0 8.40585 0 7.40332C0 6.40078 0.195205 5.44163 0.585614 4.52585C0.976023 3.61008 1.50139 2.82203 2.16171 2.16171C2.82203 1.50139 3.61008 0.976023 4.52585 0.585614C5.44163 0.195205 6.40078 0 7.40332 0C8.40585 0 9.365 0.195205 10.2808 0.585614C11.1966 0.976023 11.9846 1.50139 12.6449 2.16171C13.3052 2.82203 13.8306 3.61008 14.221 4.52585C14.6114 5.44163 14.8066 6.40078 14.8066 7.40332C14.8066 8.40585 14.6114 9.365 14.221 10.2808C13.8306 11.1966 13.3052 11.9846 12.6449 12.6449C11.9846 13.3052 11.1966 13.8306 10.2808 14.221C9.365 14.6114 8.40585 14.8066 7.40332 14.8066ZM11.7557 3.70166C11.6978 3.73058 11.6111 3.7836 11.4954 3.86071L11.2134 4.04869L10.9459 4.19328L10.6423 4.2945C10.2856 3.89927 9.84699 3.70166 9.32644 3.70166C8.19859 3.70166 7.63467 4.174 7.63467 5.1187V5.97181C6.08267 5.8947 4.89216 5.32595 4.06315 4.26558C3.82215 4.51621 3.70166 4.79095 3.70166 5.08978C3.70166 5.726 3.93783 6.20799 4.41018 6.53574C4.35234 6.53574 4.2704 6.54056 4.16436 6.5502C4.05833 6.55984 3.97398 6.55984 3.91132 6.5502C3.84866 6.54056 3.77878 6.51646 3.70166 6.4779C3.70166 6.92133 3.81974 7.29005 4.05592 7.58406C4.29209 7.87807 4.61743 8.06846 5.03194 8.15521C4.93554 8.27089 4.80059 8.32873 4.62707 8.32873C4.47284 8.32873 4.33788 8.28535 4.2222 8.19859C4.2222 8.57454 4.40295 8.86614 4.76444 9.0734C5.12593 9.28065 5.53321 9.3891 5.98627 9.39874C5.81276 9.65901 5.55972 9.85422 5.22715 9.98435C4.89457 10.1145 4.54031 10.1796 4.16436 10.1796C4.02941 10.1796 3.84384 10.1458 3.60767 10.0783C3.3715 10.0109 3.24859 9.97712 3.23895 9.97712C3.39319 10.2856 3.70889 10.5507 4.18605 10.7724C4.66322 10.9941 5.26811 11.105 6.00073 11.105C6.6466 11.105 7.24908 10.9917 7.80818 10.7652C8.36729 10.5386 8.84445 10.2374 9.23968 9.86145C9.63491 9.4855 9.97471 9.05653 10.2591 8.57454C10.5435 8.09256 10.7555 7.5937 10.8953 7.07797C11.0351 6.56225 11.105 6.05375 11.105 5.55249C11.105 5.53321 11.1628 5.49224 11.2785 5.42958C11.3942 5.36692 11.5291 5.28257 11.6834 5.17654C11.8376 5.0705 11.9533 4.95964 12.0304 4.84397C11.5098 4.84397 11.1628 4.85361 10.9893 4.87289C11.3267 4.67045 11.5821 4.28004 11.7557 3.70166Z" fill="white"/>
</g>
<defs>
<clipPath id="clip0_862_167">
<rect width="14.8066" height="14.8066" fill="white"/>
</clipPath>
</defs>
</svg>
