<svg width="16" height="15" viewBox="0 0 16 15" fill="none" xmlns="http://www.w3.org/2000/svg">
<path d="M14.1004 3.42395C11.8794 -0.000113187 7.34486 -1.01808 3.82826 1.11039C0.404197 3.23886 -0.706309 7.86597 1.5147 11.29L1.69979 11.5677L0.95945 14.3439L3.73571 13.6036L4.01334 13.7887C5.21639 14.4365 6.51198 14.8066 7.80757 14.8066C9.1957 14.8066 10.5838 14.4365 11.7869 13.6961C15.2109 11.4751 16.2289 6.94055 14.1004 3.42395ZM12.157 10.5497C11.7869 11.1049 11.3242 11.4751 10.6764 11.5677C10.3062 11.5677 9.8435 11.7527 7.99265 11.0124C6.41944 10.2721 5.12385 9.06902 4.19842 7.68088C3.64317 7.03309 3.36555 6.20021 3.273 5.36733C3.273 4.62699 3.55063 3.9792 4.01334 3.51649C4.19843 3.3314 4.38351 3.23886 4.56859 3.23886H5.0313C5.21639 3.23886 5.40147 3.23886 5.49401 3.60903C5.6791 4.07174 6.14181 5.18225 6.14181 5.27479C6.23435 5.36733 6.23435 5.55242 6.14181 5.64496C6.23435 5.83004 6.14181 6.01513 6.04927 6.10767C5.95673 6.20021 5.86418 6.38529 5.77164 6.47784C5.58656 6.57038 5.49401 6.75546 5.58656 6.94055C5.95673 7.4958 6.41944 8.05105 6.88215 8.51376C7.4374 8.97647 7.99265 9.34664 8.64045 9.62427C8.82553 9.71681 9.01062 9.71681 9.10316 9.53173C9.1957 9.34664 9.65841 8.88393 9.8435 8.69885C10.0286 8.51376 10.1211 8.51376 10.3062 8.60631L11.7869 9.34664C11.972 9.43919 12.157 9.53173 12.2496 9.62427C12.3421 9.9019 12.3421 10.2721 12.157 10.5497Z" fill="white"/>
</svg>
